<svg width="3000" height="6200" viewBox="0 0 3000 6200" fill="none" xmlns="http://www.w3.org/2000/svg">
<path d="M537.318 4879C471.354 4879 459.506 4922.87 459.506 4997.8C459.506 5074.65 471.994 5116.6 537.318 5116.6C596.237 5116.6 610.006 5076.89 610.006 5024.7H563.896C563.896 5066.65 555.57 5082.66 535.076 5082.66C512.982 5082.66 505.617 5065.04 505.617 5000.36C505.617 4942.72 509.459 4912.94 534.436 4912.94C558.132 4912.94 561.974 4932.8 561.974 4960.65H608.085V4958.41C608.085 4910.06 590.794 4879 537.318 4879Z" fill="black"/>
<path d="M633.9 4883.48V5112.12H764.868V5074.33H680.011V5012.85H756.862V4975.06H680.011V4921.27H761.665V4883.48H633.9Z" fill="black"/>
<path d="M785.667 4883.48V5112.12H831.778V5015.41H857.074C873.726 5015.41 883.012 5025.02 883.652 5043.91L884.613 5080.73C884.933 5096.75 887.174 5107.31 890.697 5112.12H940.65V5110.19C929.763 5104.75 930.723 5081.37 930.403 5069.21C929.122 5022.46 926.561 5003.88 893.579 4999.4V4998.76C917.915 4993.64 931.684 4975.06 931.684 4942.4C931.684 4903.34 908.629 4883.48 871.804 4883.48H785.667ZM831.778 4983.39V4917.43H854.513C874.046 4917.43 885.573 4927.35 885.573 4949.13C885.573 4972.82 873.726 4983.39 851.951 4983.39H831.778Z" fill="black"/>
<path d="M961.199 4883.48V5112.12H1092.17V5074.33H1007.31V5012.85H1084.16V4975.06H1007.31V4921.27H1088.96V4883.48H961.199Z" fill="black"/>
<path d="M1113.93 4883.48V5112.12H1156.19V4929.59H1156.84L1197.5 5112.12H1233.37L1274.03 4929.59H1274.67V5112.12H1316.94V4883.48H1248.74L1215.75 5044.87H1215.11L1182.45 4883.48H1113.93Z" fill="black"/>
<path d="M1420.61 4879C1350.16 4879 1342.8 4930.55 1342.8 4997.8C1342.8 5065.68 1350.48 5116.6 1420.61 5116.6C1490.74 5116.6 1498.42 5065.68 1498.42 4997.8C1498.42 4930.55 1490.74 4879 1420.61 4879ZM1388.91 4997.8C1388.91 4940.8 1392.11 4912.94 1420.61 4912.94C1449.43 4912.94 1452.31 4940.8 1452.31 4997.8C1452.31 5055.76 1449.43 5082.66 1420.61 5082.66C1392.11 5082.66 1388.91 5055.44 1388.91 4997.8Z" fill="black"/>
<path d="M1523.13 4883.48V5112.12H1565.4V4952.01H1566.04L1622.4 5112.12H1674.91V4883.48H1632.65V5040.07H1632.01L1576.29 4883.48H1523.13Z" fill="black"/>
<path d="M1689.56 4883.48L1748.8 5022.14V5112.12H1794.91V5022.14L1854.15 4883.48H1804.19L1772.17 4971.86H1771.53L1741.43 4883.48H1689.56Z" fill="black"/>
<path d="M2008.1 4879C1962.95 4879 1937.33 4903.02 1937.33 4946.24C1937.33 4986.59 1959.43 5000.68 1990.81 5013.17L2018.67 5024.38C2035 5030.78 2038.2 5040.39 2038.2 5054.48C2038.2 5072.09 2026.99 5082.66 2010.66 5082.66C1991.45 5082.66 1980.24 5075.29 1980.24 5046.79V5040.71H1934.13V5047.75C1934.13 5097.71 1959.11 5116.6 2006.82 5116.6C2058.69 5116.6 2086.23 5093.22 2086.23 5046.47C2086.23 5014.45 2072.78 4999.08 2042.36 4985.95L2007.14 4970.58C1989.85 4963.22 1983.44 4956.17 1983.44 4939.52C1983.44 4922.55 1992.09 4912.94 2009.7 4912.94C2026.67 4912.94 2034.68 4923.83 2034.68 4946.89H2078.87V4941.44C2078.87 4899.81 2053.25 4879 2008.1 4879Z" fill="black"/>
<path d="M2171.75 4879C2126.6 4879 2100.98 4903.02 2100.98 4946.24C2100.98 4986.59 2123.08 5000.68 2154.46 5013.17L2182.32 5024.38C2198.65 5030.78 2201.85 5040.39 2201.85 5054.48C2201.85 5072.09 2190.64 5082.66 2174.31 5082.66C2155.1 5082.66 2143.89 5075.29 2143.89 5046.79V5040.71H2097.78V5047.75C2097.78 5097.71 2122.76 5116.6 2170.47 5116.6C2222.34 5116.6 2249.88 5093.22 2249.88 5046.47C2249.88 5014.45 2236.43 4999.08 2206.01 4985.95L2170.79 4970.58C2153.5 4963.22 2147.09 4956.17 2147.09 4939.52C2147.09 4922.55 2155.74 4912.94 2173.35 4912.94C2190.32 4912.94 2198.33 4923.83 2198.33 4946.89H2242.52V4941.44C2242.52 4899.81 2216.9 4879 2171.75 4879Z" fill="black"/>
<path d="M2330.6 4885.4C2285.77 4885.4 2260.15 4904.62 2260.15 4952.33V4959.69H2304.34C2304.34 4926.07 2312.34 4915.5 2329.95 4915.5C2345 4915.5 2352.37 4924.47 2352.37 4944C2352.37 4970.26 2346.93 4978.91 2327.39 4996.84L2310.1 5012.85C2290.25 5031.1 2279.04 5045.83 2271.36 5061.2C2263.99 5076.25 2260.15 5093.22 2260.15 5112.12H2399.76V5076.25H2314.26C2317.47 5065.04 2324.83 5054.8 2338.6 5041.99L2363.26 5019.25C2385.35 4998.76 2398.48 4979.55 2398.48 4947.21C2398.48 4906.86 2375.1 4885.4 2330.6 4885.4Z" fill="black"/>
<path d="M2482.05 4885.4C2438.18 4885.4 2415.44 4908.46 2415.44 4952.33H2457.71V4950.41C2457.71 4925.43 2464.76 4915.5 2481.09 4915.5C2497.74 4915.5 2503.18 4926.07 2503.18 4945.28C2503.18 4960.01 2498.38 4981.15 2477.25 4981.15H2461.88V5011.25H2477.25C2497.42 5011.25 2507.03 5022.46 2507.03 5050.31C2507.03 5080.09 2496.78 5086.5 2481.73 5086.5C2463.16 5086.5 2456.43 5074.65 2456.43 5045.83H2412.24C2412.24 5094.82 2437.86 5116.6 2478.21 5116.6C2527.52 5116.6 2553.14 5092.26 2553.14 5047.75C2553.14 5014.45 2538.73 4998.76 2512.79 4994.28V4993.64C2534.56 4988.83 2547.37 4970.58 2547.37 4943.68C2547.37 4904.94 2524.64 4885.4 2482.05 4885.4Z" fill="black"/>
<path d="M500.053 5220.06L472.183 5314.37H481.165L488.826 5286.89H521.848L529.509 5314.37H538.491L510.62 5220.06H500.053ZM505.205 5226.66H505.469L519.998 5279.76H490.675L505.205 5226.66Z" fill="black"/>
<path d="M602.014 5218.47C581.937 5218.47 571.898 5234.45 571.898 5267.21C571.898 5299.97 581.937 5315.95 602.014 5315.95C618.921 5315.95 628.828 5304.33 630.017 5282.4H621.563C620.506 5299.84 613.506 5308.82 602.014 5308.82C587.484 5308.82 580.351 5295.61 580.351 5267.21C580.351 5238.81 587.484 5225.6 602.014 5225.6C613.241 5225.6 620.506 5233.53 620.638 5247.53H629.092C628.96 5229.3 618.789 5218.47 602.014 5218.47Z" fill="black"/>
<path d="M668.11 5218.47C648.033 5218.47 637.994 5234.45 637.994 5267.21C637.994 5299.97 648.033 5315.95 668.11 5315.95C688.055 5315.95 698.226 5299.84 698.226 5267.21C698.226 5234.59 688.055 5218.47 668.11 5218.47ZM646.448 5267.21C646.448 5239.34 653.316 5225.6 667.978 5225.6C682.904 5225.6 689.773 5238.94 689.773 5267.21C689.773 5295.61 682.772 5308.82 668.11 5308.82C653.58 5308.82 646.448 5295.61 646.448 5267.21Z" fill="black"/>
<path d="M709.785 5220.06V5314.37H757.336V5307.23H718.238V5220.06H709.785Z" fill="black"/>
<path d="M763.626 5220.06V5314.37H811.178V5307.23H772.08V5220.06H763.626Z" fill="black"/>
<path d="M817.468 5220.06V5314.37H865.416V5307.23H825.922V5268.66H861.718V5261.53H825.922V5227.19H864.228V5220.06H817.468Z" fill="black"/>
<path d="M903.085 5218.47C883.007 5218.47 872.969 5234.45 872.969 5267.21C872.969 5299.97 883.007 5315.95 903.085 5315.95C919.992 5315.95 929.899 5304.33 931.087 5282.4H922.634C921.577 5299.84 914.576 5308.82 903.085 5308.82C888.555 5308.82 881.422 5295.61 881.422 5267.21C881.422 5238.81 888.555 5225.6 903.085 5225.6C914.312 5225.6 921.577 5233.53 921.709 5247.53H930.163C930.031 5229.3 919.86 5218.47 903.085 5218.47Z" fill="black"/>
<path d="M933.253 5220.06V5227.19H957.557V5314.37H966.011V5227.19H990.315V5220.06H933.253Z" fill="black"/>
<path d="M996.679 5220.06V5314.37H1005.13V5220.06H996.679Z" fill="black"/>
<path d="M1047.33 5218.47C1027.25 5218.47 1017.21 5234.45 1017.21 5267.21C1017.21 5299.97 1027.25 5315.95 1047.33 5315.95C1067.27 5315.95 1077.44 5299.84 1077.44 5267.21C1077.44 5234.59 1067.27 5218.47 1047.33 5218.47ZM1025.66 5267.21C1025.66 5239.34 1032.53 5225.6 1047.19 5225.6C1062.12 5225.6 1068.99 5238.94 1068.99 5267.21C1068.99 5295.61 1061.99 5308.82 1047.33 5308.82C1032.8 5308.82 1025.66 5295.61 1025.66 5267.21Z" fill="black"/>
<path d="M1089 5220.06V5314.37H1097.45V5232.21H1097.72L1133.78 5314.37H1145.14V5220.06H1136.68V5302.21H1136.42L1100.36 5220.06H1089Z" fill="black"/>
<path d="M1186.88 5220.06V5314.37H1195.33V5268.66H1231.13V5261.53H1195.33V5227.19H1233.64V5220.06H1186.88Z" fill="black"/>
<path d="M1270.05 5218.47C1249.97 5218.47 1239.93 5234.45 1239.93 5267.21C1239.93 5299.97 1249.97 5315.95 1270.05 5315.95C1289.99 5315.95 1300.16 5299.84 1300.16 5267.21C1300.16 5234.59 1289.99 5218.47 1270.05 5218.47ZM1248.38 5267.21C1248.38 5239.34 1255.25 5225.6 1269.91 5225.6C1284.84 5225.6 1291.71 5238.94 1291.71 5267.21C1291.71 5295.61 1284.71 5308.82 1270.05 5308.82C1255.52 5308.82 1248.38 5295.61 1248.38 5267.21Z" fill="black"/>
<path d="M1311.72 5220.06V5314.37H1320.17V5271.31H1336.82C1344.48 5271.31 1348.71 5273.02 1351.21 5276.19C1353.86 5279.5 1355.05 5286.89 1355.05 5298.38C1355.05 5306.31 1356.1 5311.99 1357.69 5314.37H1367.59C1365.08 5311.59 1363.76 5307.5 1363.63 5300.23C1363.37 5282 1363.63 5269.32 1347.38 5267.87H1347.25V5267.61C1358.61 5265.49 1364.29 5256.64 1364.29 5243.7C1364.29 5228.24 1354.78 5220.06 1340.38 5220.06H1311.72ZM1320.17 5264.17V5227.19H1335.5C1348.97 5227.19 1355.84 5232.34 1355.84 5245.55C1355.84 5258.1 1348.18 5264.17 1334.7 5264.17H1320.17Z" fill="black"/>
<path d="M1420.14 5220.06L1392.27 5314.37H1401.25L1408.91 5286.89H1441.93L1449.59 5314.37H1458.58L1430.71 5220.06H1420.14ZM1425.29 5226.66H1425.55L1440.08 5279.76H1410.76L1425.29 5226.66Z" fill="black"/>
<path d="M1463.44 5220.06V5314.37H1510.99V5307.23H1471.9V5220.06H1463.44Z" fill="black"/>
<path d="M1517.28 5220.06V5314.37H1564.84V5307.23H1525.74V5220.06H1517.28Z" fill="black"/>
<path d="M1624.63 5218.47C1608.65 5218.47 1598.61 5228.51 1598.61 5243.44C1598.61 5249.78 1600.2 5254.93 1603.5 5258.89C1606.8 5262.85 1612.22 5266.02 1622.52 5269.19C1635.99 5273.29 1644.31 5277.51 1644.31 5289.67C1644.31 5301.95 1636.92 5308.82 1623.97 5308.82C1611.69 5308.82 1605.22 5301.55 1605.22 5288.21V5285.17H1596.76V5287.42C1596.76 5306.84 1606.4 5315.95 1624.24 5315.95C1642.33 5315.95 1652.77 5305.91 1652.77 5288.48C1652.77 5283.19 1651.84 5276.85 1646.16 5271.7C1642.86 5268.8 1638.11 5266.15 1631.1 5263.91C1618.95 5260.08 1607.06 5256.64 1607.06 5242.51C1607.06 5232.21 1614.33 5225.6 1624.9 5225.6C1635.99 5225.6 1641.8 5231.81 1641.8 5244.23H1650.26C1650.26 5226.92 1641.8 5218.47 1624.63 5218.47Z" fill="black"/>
<path d="M1661.53 5220.06V5314.37H1669.98V5273.42H1684.11C1702.74 5273.42 1712.91 5264.3 1712.91 5246.74C1712.91 5229.04 1703.13 5220.06 1687.55 5220.06H1661.53ZM1669.98 5266.29V5227.19H1684.38C1697.98 5227.19 1704.45 5233 1704.45 5246.74C1704.45 5259.81 1696.93 5266.29 1684.77 5266.29H1669.98Z" fill="black"/>
<path d="M1722.59 5220.06V5314.37H1770.54V5307.23H1731.04V5268.66H1766.84V5261.53H1731.04V5227.19H1769.35V5220.06H1722.59Z" fill="black"/>
<path d="M1808.21 5218.47C1788.13 5218.47 1778.09 5234.45 1778.09 5267.21C1778.09 5299.97 1788.13 5315.95 1808.21 5315.95C1825.11 5315.95 1835.02 5304.33 1836.21 5282.4H1827.76C1826.7 5299.84 1819.7 5308.82 1808.21 5308.82C1793.68 5308.82 1786.55 5295.61 1786.55 5267.21C1786.55 5238.81 1793.68 5225.6 1808.21 5225.6C1819.44 5225.6 1826.7 5233.53 1826.83 5247.53H1835.29C1835.15 5229.3 1824.98 5218.47 1808.21 5218.47Z" fill="black"/>
<path d="M1845.51 5220.06V5314.37H1853.96V5220.06H1845.51Z" fill="black"/>
<path d="M1887.17 5220.06L1859.3 5314.37H1868.29L1875.95 5286.89H1908.97L1916.63 5314.37H1925.61L1897.74 5220.06H1887.17ZM1892.33 5226.66H1892.59L1907.12 5279.76H1877.8L1892.33 5226.66Z" fill="black"/>
<path d="M1930.48 5220.06V5314.37H1978.03V5307.23H1938.93V5220.06H1930.48Z" fill="black"/>
<path d="M2042.98 5218.47C2022.9 5218.47 2012.86 5234.45 2012.86 5267.21C2012.86 5299.97 2022.9 5315.95 2042.98 5315.95C2062.92 5315.95 2073.09 5299.84 2073.09 5267.21C2073.09 5234.59 2062.92 5218.47 2042.98 5218.47ZM2021.31 5267.21C2021.31 5239.34 2028.18 5225.6 2042.84 5225.6C2057.77 5225.6 2064.64 5238.94 2064.64 5267.21C2064.64 5295.61 2057.64 5308.82 2042.98 5308.82C2028.45 5308.82 2021.31 5295.61 2021.31 5267.21Z" fill="black"/>
<path d="M2113.97 5218.47C2093.9 5218.47 2083.86 5234.45 2083.86 5267.21C2083.86 5299.97 2093.9 5315.95 2113.97 5315.95C2130.88 5315.95 2140.79 5304.33 2141.98 5282.4H2133.52C2132.47 5299.84 2125.47 5308.82 2113.97 5308.82C2099.44 5308.82 2092.31 5295.61 2092.31 5267.21C2092.31 5238.81 2099.44 5225.6 2113.97 5225.6C2125.2 5225.6 2132.47 5233.53 2132.6 5247.53H2141.05C2140.92 5229.3 2130.75 5218.47 2113.97 5218.47Z" fill="black"/>
<path d="M2180.07 5218.47C2159.99 5218.47 2149.95 5234.45 2149.95 5267.21C2149.95 5299.97 2159.99 5315.95 2180.07 5315.95C2196.98 5315.95 2206.88 5304.33 2208.07 5282.4H2199.62C2198.56 5299.84 2191.56 5308.82 2180.07 5308.82C2165.54 5308.82 2158.41 5295.61 2158.41 5267.21C2158.41 5238.81 2165.54 5225.6 2180.07 5225.6C2191.3 5225.6 2198.56 5233.53 2198.7 5247.53H2207.15C2207.02 5229.3 2196.85 5218.47 2180.07 5218.47Z" fill="black"/>
<path d="M2237.18 5220.06L2209.31 5314.37H2218.3L2225.96 5286.89H2258.98L2266.64 5314.37H2275.62L2247.75 5220.06H2237.18ZM2242.34 5226.66H2242.6L2257.13 5279.76H2227.81L2242.34 5226.66Z" fill="black"/>
<path d="M2304.66 5218.47C2288.68 5218.47 2278.64 5228.51 2278.64 5243.44C2278.64 5249.78 2280.22 5254.93 2283.53 5258.89C2286.83 5262.85 2292.24 5266.02 2302.55 5269.19C2316.02 5273.29 2324.34 5277.51 2324.34 5289.67C2324.34 5301.95 2316.94 5308.82 2304 5308.82C2291.72 5308.82 2285.24 5301.55 2285.24 5288.21V5285.17H2276.79V5287.42C2276.79 5306.84 2286.43 5315.95 2304.26 5315.95C2322.36 5315.95 2332.8 5305.91 2332.8 5288.48C2332.8 5283.19 2331.87 5276.85 2326.19 5271.7C2322.89 5268.8 2318.13 5266.15 2311.13 5263.91C2298.98 5260.08 2287.09 5256.64 2287.09 5242.51C2287.09 5232.21 2294.36 5225.6 2304.92 5225.6C2316.02 5225.6 2321.83 5231.81 2321.83 5244.23H2330.29C2330.29 5226.92 2321.83 5218.47 2304.66 5218.47Z" fill="black"/>
<path d="M2342.08 5220.06V5314.37H2350.54V5220.06H2342.08Z" fill="black"/>
<path d="M2392.73 5218.47C2372.65 5218.47 2362.61 5234.45 2362.61 5267.21C2362.61 5299.97 2372.65 5315.95 2392.73 5315.95C2412.67 5315.95 2422.85 5299.84 2422.85 5267.21C2422.85 5234.59 2412.67 5218.47 2392.73 5218.47ZM2371.07 5267.21C2371.07 5239.34 2377.94 5225.6 2392.6 5225.6C2407.52 5225.6 2414.39 5238.94 2414.39 5267.21C2414.39 5295.61 2407.39 5308.82 2392.73 5308.82C2378.2 5308.82 2371.07 5295.61 2371.07 5267.21Z" fill="black"/>
<path d="M2434.4 5220.06V5314.37H2442.86V5232.21H2443.12L2479.18 5314.37H2490.54V5220.06H2482.09V5302.21H2481.82L2445.76 5220.06H2434.4Z" fill="black"/>
<path d="M2527.12 5218.47C2511.14 5218.47 2501.1 5228.51 2501.1 5243.44C2501.1 5249.78 2502.69 5254.93 2505.99 5258.89C2509.29 5262.85 2514.71 5266.02 2525.01 5269.19C2538.48 5273.29 2546.8 5277.51 2546.8 5289.67C2546.8 5301.95 2539.41 5308.82 2526.46 5308.82C2514.18 5308.82 2507.71 5301.55 2507.71 5288.21V5285.17H2499.25V5287.42C2499.25 5306.84 2508.89 5315.95 2526.73 5315.95C2544.82 5315.95 2555.26 5305.91 2555.26 5288.48C2555.26 5283.19 2554.33 5276.85 2548.65 5271.7C2545.35 5268.8 2540.6 5266.15 2533.6 5263.91C2521.44 5260.08 2509.56 5256.64 2509.56 5242.51C2509.56 5232.21 2516.82 5225.6 2527.39 5225.6C2538.48 5225.6 2544.29 5231.81 2544.29 5244.23H2552.75C2552.75 5226.92 2544.29 5218.47 2527.12 5218.47Z" fill="black"/>
</svg>
