<svg width="3000" height="1700" viewBox="0 0 3000 1700" fill="none" xmlns="http://www.w3.org/2000/svg">
<path d="M2101.35 1011.4C2083.25 1011.4 2080 1023.44 2080 1044C2080 1065.08 2083.42 1076.59 2101.35 1076.59C2117.51 1076.59 2121.29 1065.7 2121.29 1051.38H2108.64C2108.64 1062.89 2106.35 1067.28 2100.73 1067.28C2094.67 1067.28 2092.65 1062.45 2092.65 1044.7C2092.65 1028.89 2093.7 1020.72 2100.56 1020.72C2107.06 1020.72 2108.11 1026.16 2108.11 1033.81H2120.76V1033.19C2120.76 1019.92 2116.02 1011.4 2101.35 1011.4Z" fill="black"/>
<path d="M2128.15 1012.63V1075.36H2164.09V1064.99H2140.8V1048.13H2161.89V1037.76H2140.8V1023H2163.21V1012.63H2128.15Z" fill="black"/>
<path d="M2170.1 1012.63V1075.36H2182.75V1048.83H2189.69C2194.26 1048.83 2196.81 1051.46 2196.98 1056.65L2197.25 1066.75C2197.34 1071.14 2197.95 1074.04 2198.92 1075.36H2212.62V1074.83C2209.64 1073.34 2209.9 1066.93 2209.81 1063.59C2209.46 1050.76 2208.76 1045.67 2199.71 1044.44V1044.26C2206.38 1042.85 2210.16 1037.76 2210.16 1028.8C2210.16 1018.08 2203.84 1012.63 2193.73 1012.63H2170.1ZM2182.75 1040.04V1021.95H2188.99C2194.35 1021.95 2197.51 1024.67 2197.51 1030.64C2197.51 1037.14 2194.26 1040.04 2188.29 1040.04H2182.75Z" fill="black"/>
<path d="M2218.57 1012.63V1075.36H2254.5V1064.99H2231.22V1048.13H2252.3V1037.76H2231.22V1023H2253.62V1012.63H2218.57Z" fill="black"/>
<path d="M2260.78 1012.63V1075.36H2272.38V1025.28H2272.55L2283.71 1075.36H2293.55L2304.71 1025.28H2304.88V1075.36H2316.48V1012.63H2297.77L2288.72 1056.91H2288.54L2279.58 1012.63H2260.78Z" fill="black"/>
<path d="M2345.23 1011.4C2325.9 1011.4 2323.88 1025.55 2323.88 1044C2323.88 1062.62 2325.99 1076.59 2345.23 1076.59C2364.47 1076.59 2366.58 1062.62 2366.58 1044C2366.58 1025.55 2364.47 1011.4 2345.23 1011.4ZM2336.53 1044C2336.53 1028.36 2337.41 1020.72 2345.23 1020.72C2353.14 1020.72 2353.93 1028.36 2353.93 1044C2353.93 1059.9 2353.14 1067.28 2345.23 1067.28C2337.41 1067.28 2336.53 1059.81 2336.53 1044Z" fill="black"/>
<path d="M2373.67 1012.63V1075.36H2385.26V1031.43H2385.44L2400.9 1075.36H2415.31V1012.63H2403.71V1055.59H2403.54L2388.25 1012.63H2373.67Z" fill="black"/>
<path d="M2419.63 1012.63L2435.89 1050.67V1075.36H2448.54V1050.67L2464.79 1012.63H2451.09L2442.3 1036.88H2442.13L2433.87 1012.63H2419.63Z" fill="black"/>
<path d="M2507.65 1011.4C2495.26 1011.4 2488.23 1017.99 2488.23 1029.85C2488.23 1040.92 2494.29 1044.79 2502.9 1048.21L2510.55 1051.29C2515.03 1053.05 2515.91 1055.68 2515.91 1059.55C2515.91 1064.38 2512.83 1067.28 2508.35 1067.28C2503.08 1067.28 2500 1065.26 2500 1057.44V1055.77H2487.35V1057.7C2487.35 1071.41 2494.2 1076.59 2507.3 1076.59C2521.53 1076.59 2529.08 1070.18 2529.08 1057.35C2529.08 1048.57 2525.39 1044.35 2517.05 1040.75L2507.38 1036.53C2502.64 1034.51 2500.88 1032.58 2500.88 1028.01C2500.88 1023.35 2503.25 1020.72 2508.09 1020.72C2512.74 1020.72 2514.94 1023.7 2514.94 1030.03H2527.06V1028.53C2527.06 1017.11 2520.03 1011.4 2507.65 1011.4Z" fill="black"/>
<path d="M2552.85 1011.4C2540.47 1011.4 2533.44 1017.99 2533.44 1029.85C2533.44 1040.92 2539.5 1044.79 2548.11 1048.21L2555.75 1051.29C2560.23 1053.05 2561.11 1055.68 2561.11 1059.55C2561.11 1064.38 2558.04 1067.28 2553.56 1067.28C2548.29 1067.28 2545.21 1065.26 2545.21 1057.44V1055.77H2532.56V1057.7C2532.56 1071.41 2539.41 1076.59 2552.5 1076.59C2566.74 1076.59 2574.29 1070.18 2574.29 1057.35C2574.29 1048.57 2570.6 1044.35 2562.25 1040.75L2552.59 1036.53C2547.85 1034.51 2546.09 1032.58 2546.09 1028.01C2546.09 1023.35 2548.46 1020.72 2553.29 1020.72C2557.95 1020.72 2560.15 1023.7 2560.15 1030.03H2572.27V1028.53C2572.27 1017.11 2565.24 1011.4 2552.85 1011.4Z" fill="black"/>
<path d="M2596.74 1013.16C2584.44 1013.16 2577.41 1018.43 2577.41 1031.52V1033.54H2589.54C2589.54 1024.32 2591.74 1021.42 2596.57 1021.42C2600.7 1021.42 2602.72 1023.88 2602.72 1029.24C2602.72 1036.44 2601.22 1038.81 2595.86 1043.73L2591.12 1048.13C2585.67 1053.13 2582.6 1057.18 2580.49 1061.39C2578.47 1065.52 2577.41 1070.18 2577.41 1075.36H2615.72V1065.52H2592.26C2593.14 1062.45 2595.16 1059.64 2598.94 1056.12L2605.7 1049.88C2611.77 1044.26 2615.37 1038.99 2615.37 1030.12C2615.37 1019.05 2608.96 1013.16 2596.74 1013.16Z" fill="black"/>
<path d="M2638.6 1013.16C2626.57 1013.16 2620.33 1019.49 2620.33 1031.52H2631.93V1030.99C2631.93 1024.14 2633.86 1021.42 2638.34 1021.42C2642.91 1021.42 2644.4 1024.32 2644.4 1029.59C2644.4 1033.63 2643.09 1039.43 2637.29 1039.43H2633.07V1047.69H2637.29C2642.82 1047.69 2645.46 1050.76 2645.46 1058.41C2645.46 1066.58 2642.65 1068.33 2638.52 1068.33C2633.42 1068.33 2631.58 1065.08 2631.58 1057.18H2619.45C2619.45 1070.62 2626.48 1076.59 2637.55 1076.59C2651.08 1076.59 2658.11 1069.91 2658.11 1057.7C2658.11 1048.57 2654.16 1044.26 2647.04 1043.03V1042.85C2653.01 1041.54 2656.53 1036.53 2656.53 1029.15C2656.53 1018.52 2650.29 1013.16 2638.6 1013.16Z" fill="black"/>
<path d="M2092.76 1100.96H2087.74C2087.85 1101.61 2087.96 1103.43 2087.96 1104.16C2087.96 1105.83 2087.93 1110.33 2087.93 1114.47C2087.93 1118.86 2088.11 1123.91 2088.11 1125.8C2088.11 1127.07 2087.64 1127.36 2086.98 1127.36C2086.04 1127.36 2084.33 1126.38 2084.33 1125.22C2084.33 1123.66 2086.66 1121.69 2089.92 1120.46C2092.76 1119.33 2095.95 1118.68 2099.04 1118.68C2102.2 1118.68 2104.38 1120.1 2104.38 1122.6C2104.38 1125.22 2102.02 1126.71 2099.07 1127.21C2097.84 1127.47 2096.24 1127.47 2094.64 1127.47L2096.28 1132.19C2097.77 1132.04 2099.4 1131.94 2101.07 1131.57C2106.85 1130.16 2109.1 1126.92 2109.1 1122.6C2109.1 1117.59 2104.67 1114.69 2099.07 1114.69C2096.31 1114.69 2092.65 1115.27 2089.42 1116.43C2084.37 1118.21 2079.83 1121.91 2079.83 1125.44C2079.83 1129.28 2084.84 1132.33 2088.36 1132.33C2090.76 1132.33 2092.36 1131.1 2092.36 1126.63C2092.36 1124.53 2092.14 1118.24 2092.14 1114.29C2092.14 1110.91 2092.25 1106.99 2092.43 1104.12C2092.47 1103.21 2092.61 1101.65 2092.76 1100.96ZM2103.11 1104.92L2101.11 1108.44C2103.36 1109.53 2108.08 1112.25 2109.82 1113.71L2112.04 1110C2110.08 1108.62 2105.87 1106.26 2103.11 1104.92ZM2080.81 1106.92L2080.92 1111.31C2082.15 1111.45 2083.57 1111.49 2085.97 1111.49C2089.16 1111.49 2095.01 1110.84 2099.11 1109.89L2099 1105.39C2095.26 1106.48 2089.6 1107.17 2085.82 1107.17C2084.51 1107.17 2082.95 1107.17 2080.81 1106.92Z" fill="black"/>
<path d="M2114.27 1115.52V1119.88H2147.82V1115.52H2114.27ZM2128.79 1109.75V1128.59C2128.79 1129.21 2128.54 1129.39 2127.74 1129.43C2126.9 1129.43 2124.11 1129.43 2121.56 1129.32C2122.29 1130.52 2123.16 1132.52 2123.45 1133.82C2126.76 1133.86 2129.3 1133.71 2131.04 1133.02C2132.79 1132.33 2133.37 1131.14 2133.37 1128.67V1109.75H2128.79ZM2118.08 1101.83V1106.15H2140.96V1101.83H2118.08ZM2139.54 1101.83V1102.85C2137.69 1105.21 2133.15 1108.73 2129.3 1110.69C2130.14 1111.45 2131.48 1112.91 2132.13 1113.85C2136.6 1111.49 2141.61 1107.64 2145.02 1104.12L2141.68 1101.61L2140.7 1101.83H2139.54Z" fill="black"/>
<path d="M2163.27 1103.65V1107.1H2183.2V1103.65H2163.27ZM2164.25 1108.51V1111.78H2182.44V1108.51H2164.25ZM2162.58 1113.34V1116.9H2183.86V1113.34H2162.58ZM2177.25 1099.54C2176.88 1100.81 2176.12 1102.63 2175.47 1103.9L2178.88 1104.88C2179.61 1103.83 2180.59 1102.23 2181.57 1100.6L2177.25 1099.54ZM2165.59 1100.81C2166.35 1102.12 2167.15 1103.9 2167.44 1105.03L2171.07 1103.72C2170.75 1102.59 2169.84 1100.92 2169 1099.69L2165.59 1100.81ZM2180.41 1117.59C2179.28 1119.12 2177.32 1121.19 2175.9 1122.38L2178.7 1124.53C2180.15 1123.37 2182.08 1121.59 2183.67 1119.92L2180.41 1117.59ZM2163.27 1119.66C2164.57 1121.08 2166.1 1123.04 2166.75 1124.35L2169.87 1122.17C2169.15 1120.9 2167.55 1119.04 2166.24 1117.7L2163.27 1119.66ZM2161.16 1127.87L2163.05 1131.54C2165.37 1130.26 2168.24 1128.67 2170.78 1127.18L2169.66 1123.66C2166.53 1125.25 2163.34 1126.89 2161.16 1127.87ZM2171.15 1105.97V1129.39C2171.15 1129.79 2171 1129.97 2170.56 1129.97C2170.13 1129.97 2168.71 1129.97 2167.48 1129.94C2167.99 1130.95 2168.49 1132.66 2168.6 1133.79C2170.89 1133.79 2172.63 1133.71 2173.83 1133.06C2174.99 1132.41 2175.32 1131.35 2175.32 1129.39V1105.97H2171.15ZM2175.1 1117.59L2172.27 1118.24C2173.98 1124.35 2177.06 1129.43 2181.79 1132.04C2182.4 1130.92 2183.67 1129.32 2184.55 1128.52C2179.9 1126.63 2176.7 1122.46 2175.1 1117.59ZM2150.45 1107.13V1111.16H2162.47V1107.13H2150.45ZM2154.88 1099.62V1133.71H2158.84V1099.62H2154.88ZM2154.8 1109.89C2153.97 1114.5 2151.94 1120.21 2149.61 1123.37C2150.23 1124.38 2151.17 1126.05 2151.54 1127.21C2154.11 1123.47 2156.18 1116.47 2157.24 1110.73L2154.8 1109.89ZM2158.65 1112.54L2156.84 1114.29C2157.82 1115.99 2160 1120.13 2160.8 1122.24L2163.05 1119.12C2162.43 1118.1 2159.45 1113.52 2158.65 1112.54Z" fill="black"/>
<path d="M2206.27 1105.57L2201.3 1105.43C2200.94 1109.24 2200.14 1113.42 2199.08 1116.83C2197.56 1121.73 2196.18 1124.06 2194.62 1124.06C2193.24 1124.06 2191.78 1122.28 2191.78 1118.61C2191.78 1114.03 2196 1107.75 2203.7 1107.75C2209.98 1107.75 2213.54 1111.82 2213.54 1117.52C2213.54 1122.86 2209.9 1126.16 2205.29 1127.29C2204.31 1127.51 2203.3 1127.69 2201.88 1127.87L2204.64 1132.15C2213.79 1130.74 2218.47 1125.33 2218.47 1117.7C2218.47 1109.75 2212.77 1103.5 2203.8 1103.5C2194.4 1103.5 2187.1 1110.69 2187.1 1119.04C2187.1 1125.18 2190.44 1129.65 2194.51 1129.65C2198.47 1129.65 2201.59 1125.14 2203.77 1117.81C2205.04 1113.52 2205.76 1109.28 2206.27 1105.57Z" fill="black"/>
<path d="M2226 1102.19V1106.01H2229.74V1123.11H2226V1126.92H2233.38V1102.19H2226ZM2225.6 1112.65V1116.39H2231.09V1112.65H2225.6ZM2223.17 1102.19V1129.9H2226.69V1102.19H2223.17ZM2235.74 1102.27V1105.39H2255.02V1102.27H2235.74ZM2236.68 1106.81V1109.75H2254.33V1106.81H2236.68ZM2234.83 1111.31V1114.43H2255.89V1111.31H2234.83ZM2243.18 1099.62V1113.02H2247.39V1099.62H2243.18ZM2236.9 1115.96V1133.75H2240.89V1119.04H2251.35V1115.96H2236.9ZM2250.04 1115.96V1129.76C2250.04 1130.16 2249.9 1130.3 2249.43 1130.3C2248.99 1130.3 2247.47 1130.3 2246.12 1130.23C2246.59 1131.21 2247.1 1132.66 2247.25 1133.71C2249.57 1133.71 2251.28 1133.68 2252.51 1133.13C2253.75 1132.55 2254.11 1131.61 2254.11 1129.79V1115.96H2250.04ZM2239.22 1120.79V1123.62H2251.97V1120.79H2239.22ZM2239.22 1125.36V1128.19H2251.97V1125.36H2239.22Z" fill="black"/>
<path d="M2292.14 1128.56L2291.53 1123.47C2289.89 1125.11 2288.19 1126.05 2286.84 1126.05C2285.93 1126.05 2285.43 1125.4 2285.43 1124.45C2285.43 1120.68 2286.62 1115.34 2286.62 1111.6C2286.62 1108.55 2284.84 1106.23 2280.92 1106.23C2276.13 1106.23 2270.06 1111.67 2267.85 1114L2267.89 1119.59C2270.79 1115.88 2276.2 1110.55 2279.58 1110.55C2281.14 1110.55 2282.05 1111.42 2282.05 1113.2C2282.05 1116.54 2280.74 1121.84 2280.74 1125.8C2280.74 1129.32 2282.56 1131.28 2285.28 1131.28C2288.26 1131.28 2290.44 1130.12 2292.14 1128.56ZM2267.05 1111.27L2266.76 1111.93L2266.69 1112.87C2264.87 1115.74 2260.51 1121.48 2258.23 1124.31L2261.06 1128.3C2262.98 1125.65 2266.22 1120.79 2267.81 1118.46L2269.92 1111.64C2270.54 1110.69 2271.66 1108.91 2272.28 1108.08L2270.83 1106.19C2269.19 1106.73 2264.55 1107.42 2262.26 1107.53C2260.95 1107.6 2260.11 1107.6 2259.1 1107.57L2259.57 1112.25C2261.97 1111.89 2265.42 1111.45 2267.05 1111.27ZM2266.62 1104.26C2266.62 1105.72 2265.82 1115.88 2265.71 1119.12C2265.6 1123.66 2265.56 1126.09 2265.53 1129.61C2265.53 1130.19 2265.49 1131.46 2265.42 1132.3H2270.39C2270.32 1131.5 2270.17 1130.16 2270.14 1129.5C2269.92 1126.13 2269.92 1123.04 2269.92 1120.1C2269.92 1113.6 2271.12 1104.08 2271.74 1101.18L2266.43 1101.03C2266.65 1102.16 2266.62 1103.25 2266.62 1104.26Z" fill="black"/>
<path d="M2314.16 1105.57L2309.19 1105.43C2308.82 1109.24 2308.03 1113.42 2306.97 1116.83C2305.45 1121.73 2304.07 1124.06 2302.51 1124.06C2301.13 1124.06 2299.67 1122.28 2299.67 1118.61C2299.67 1114.03 2303.89 1107.75 2311.58 1107.75C2317.87 1107.75 2321.43 1111.82 2321.43 1117.52C2321.43 1122.86 2317.79 1126.16 2313.18 1127.29C2312.2 1127.51 2311.18 1127.69 2309.77 1127.87L2312.53 1132.15C2321.68 1130.74 2326.36 1125.33 2326.36 1117.7C2326.36 1109.75 2320.66 1103.5 2311.69 1103.5C2302.29 1103.5 2294.99 1110.69 2294.99 1119.04C2294.99 1125.18 2298.33 1129.65 2302.4 1129.65C2306.35 1129.65 2309.48 1125.14 2311.66 1117.81C2312.93 1113.52 2313.65 1109.28 2314.16 1105.57Z" fill="black"/>
<path d="M2334.22 1101.79V1133.28H2338.72V1106.19H2354.88V1133.24H2359.57V1101.79H2334.22ZM2337.31 1114V1118.32H2356.84V1114H2337.31ZM2337.27 1126.52V1130.92H2356.84V1126.52H2337.27Z" fill="black"/>
<path d="M2382.28 1101.32L2377.48 1100.92C2377.37 1102.78 2376.9 1104.99 2376.17 1106.95C2374.65 1110.95 2371.85 1114.87 2367.2 1119.15L2371.09 1122.06C2372.33 1120.46 2373.34 1119.15 2374.43 1118.06C2375.81 1116.76 2378.1 1115.56 2380.1 1115.56C2381.62 1115.56 2383.07 1116.32 2383.07 1118.64C2383.11 1120.61 2383.04 1123.69 2382.89 1125.4H2387.25C2387.21 1123.11 2387.1 1119.15 2387.1 1117.19C2387.1 1113.81 2384.82 1112.04 2381.8 1112.04C2380.57 1112.04 2378.64 1112.29 2377.66 1112.73C2378.68 1111.27 2379.73 1109.2 2380.5 1107.42C2381.51 1104.81 2381.98 1102.67 2382.28 1101.32ZM2368.58 1104.7V1108.91C2370.58 1109.09 2373.23 1109.17 2374.72 1109.17C2379.15 1109.17 2386.45 1108.84 2391.57 1108.11L2391.61 1103.9C2386.34 1104.85 2379.77 1105.1 2374.98 1105.1C2373.12 1105.1 2370.44 1104.95 2368.58 1104.7ZM2397.35 1115.01L2395.57 1110.76C2394.19 1111.45 2392.92 1112.04 2391.5 1112.65C2389.32 1113.67 2387.03 1114.54 2383.69 1116.28C2379.33 1118.46 2374.14 1121.44 2374.14 1126.49C2374.14 1131.17 2378.39 1132.59 2384.05 1132.59C2387.5 1132.59 2391.93 1132.26 2394.37 1131.94L2394.51 1127.25C2391.32 1127.9 2387.25 1128.3 2384.16 1128.3C2380.64 1128.3 2378.9 1127.76 2378.9 1125.76C2378.9 1123.76 2380.68 1122.2 2383.98 1120.5C2387.4 1118.75 2390.66 1117.45 2393.02 1116.54C2394.26 1116.07 2396.22 1115.34 2397.35 1115.01Z" fill="black"/>
<path d="M2402.48 1116.28V1120.21H2421V1116.28H2402.48ZM2410.03 1113.05V1133.61H2414.28V1113.05H2410.03ZM2410.07 1117.85C2408.25 1121.51 2404.55 1125.65 2401.17 1127.72C2402.08 1128.7 2403.2 1130.45 2403.79 1131.61C2407.34 1128.85 2411.27 1124.06 2413.41 1119.88L2410.07 1117.85ZM2419.15 1099.94C2414.68 1101.14 2407.78 1102.09 2401.68 1102.63C2402.15 1103.57 2402.7 1105.17 2402.8 1106.19C2409.01 1105.79 2416.31 1104.95 2421.72 1103.61L2419.15 1099.94ZM2402.41 1108.44C2403.75 1110.15 2405.02 1112.54 2405.49 1114.14L2408.87 1112.51C2408.32 1110.91 2407.02 1108.66 2405.64 1106.99L2402.41 1108.44ZM2408.94 1107.1C2409.96 1108.8 2410.9 1111.09 2411.23 1112.65L2414.79 1111.38C2414.39 1109.89 2413.37 1107.68 2412.32 1106.04L2408.94 1107.1ZM2417.58 1106.08C2416.97 1108.19 2415.81 1111.09 2414.79 1113.02L2418.13 1114C2419.22 1112.29 2420.63 1109.6 2421.83 1107.13L2417.58 1106.08ZM2430.29 1100.2C2428.41 1102.99 2424.63 1105.83 2421.47 1107.46C2422.63 1108.33 2423.94 1109.71 2424.7 1110.73C2428.3 1108.59 2432.07 1105.46 2434.69 1101.94L2430.29 1100.2ZM2431.06 1110.18C2428.99 1113.05 2424.99 1115.92 2421.72 1117.59C2422.89 1118.43 2424.23 1119.84 2424.96 1120.82C2428.62 1118.68 2432.58 1115.49 2435.31 1111.96L2431.06 1110.18ZM2431.86 1120.24C2429.39 1124.53 2424.56 1127.98 2419.69 1129.94C2420.85 1130.95 2422.12 1132.52 2422.81 1133.71C2428.22 1131.06 2433.09 1127.14 2436.25 1121.95L2431.86 1120.24ZM2412.32 1121.84C2414.72 1123.76 2417.26 1126.63 2418.42 1128.56L2421.29 1125.69C2420.09 1123.8 2417.51 1121.19 2415.01 1119.33L2412.32 1121.84Z" fill="black"/>
<path d="M2444.54 1102.81L2444.69 1107.53C2445.52 1107.39 2446.65 1107.31 2447.63 1107.24C2449.59 1107.1 2454.6 1106.92 2456.45 1106.84C2454.67 1108.44 2450.86 1111.49 2448.83 1113.16C2446.72 1114.94 2442.33 1118.64 2439.75 1120.68L2443.05 1124.09C2446.94 1119.7 2450.53 1116.72 2456.13 1116.72C2460.37 1116.72 2463.64 1118.93 2463.64 1122.24C2463.64 1126.13 2460.52 1128.45 2454.38 1128.45C2452.17 1128.45 2450.68 1127.54 2450.68 1126.2C2450.68 1125.25 2451.59 1124.42 2452.93 1124.42C2455.07 1124.42 2456.45 1126.23 2456.53 1128.85L2460.77 1128.3C2460.66 1124.31 2457.91 1120.97 2452.93 1120.97C2449.08 1120.97 2446.39 1123.66 2446.39 1126.6C2446.39 1130.26 2450.21 1132.55 2455.25 1132.55C2464.04 1132.55 2468.4 1128.01 2468.4 1122.28C2468.4 1117.01 2463.72 1113.16 2457.54 1113.16C2456.42 1113.16 2455.33 1113.23 2454.09 1113.56C2456.42 1111.74 2460.23 1108.55 2462.19 1107.17C2462.99 1106.55 2463.86 1106.04 2464.7 1105.5L2462.37 1102.23C2461.94 1102.38 2461.1 1102.52 2459.58 1102.63C2457.51 1102.81 2449.77 1102.99 2447.81 1102.99C2446.79 1102.99 2445.56 1102.92 2444.54 1102.81Z" fill="black"/>
<path d="M2478.18 1104.66V1109.75C2479.2 1109.67 2481.16 1109.6 2482.68 1109.6H2499.02V1127.54C2499.02 1128.88 2498.99 1130.19 2498.95 1131.28H2504.22C2504.14 1130.16 2504.04 1128.27 2504.04 1127V1108.19C2504.04 1107.1 2504.11 1105.68 2504.14 1104.81C2503.53 1104.85 2502.04 1104.92 2500.99 1104.92H2482.68C2481.41 1104.92 2479.56 1104.81 2478.18 1104.66ZM2477.74 1124.38V1129.61C2478.94 1129.47 2480.98 1129.39 2482.39 1129.39H2501.89V1124.6H2482.25C2480.61 1124.6 2478.98 1124.49 2477.74 1124.38Z" fill="black"/>
<path d="M2515.56 1129.03L2518.97 1132.01C2519.84 1131.43 2520.64 1131.17 2521.12 1131.03C2529.69 1128.23 2537.24 1123.87 2542.21 1117.95L2539.64 1113.81C2534.99 1119.52 2526.89 1124.16 2520.97 1125.83C2520.97 1123.07 2520.97 1110.98 2520.97 1106.95C2520.97 1105.57 2521.12 1104.23 2521.3 1102.85H2515.6C2515.81 1103.86 2516.03 1105.61 2516.03 1106.95C2516.03 1111.02 2516.03 1123.91 2516.03 1126.67C2516.03 1127.51 2515.96 1128.12 2515.56 1129.03Z" fill="black"/>
<path d="M2577.09 1107.9L2573.35 1105.57C2572.55 1105.86 2571.31 1106.01 2570.19 1106.01C2569.06 1106.01 2561.44 1106.01 2559.84 1106.01L2558.17 1110.15H2570.41C2569.82 1112.83 2567.72 1117.19 2565.25 1120.02C2562.05 1123.62 2558.02 1126.78 2550.61 1129.03L2554.9 1132.84C2561.73 1130.16 2566.08 1126.82 2569.53 1122.6C2572.84 1118.57 2574.91 1113.74 2575.89 1110.47C2576.18 1109.57 2576.69 1108.59 2577.09 1107.9ZM2565.25 1102.12L2559.91 1100.38C2559.58 1101.65 2558.82 1103.32 2558.28 1104.19C2556.5 1107.31 2553.3 1112 2546.95 1115.88L2551.01 1118.9C2556.24 1115.34 2560.56 1110.22 2563.03 1105.83C2563.43 1105.06 2564.38 1103.39 2565.25 1102.12Z" fill="black"/>
<path d="M2591.59 1101.72L2588.97 1105.72C2591.37 1107.06 2595.15 1109.49 2597.18 1110.91L2599.87 1106.92C2597.98 1105.57 2593.99 1103.03 2591.59 1101.72ZM2584.87 1127.51L2587.59 1132.26C2590.79 1131.68 2596.02 1129.87 2599.72 1127.8C2605.64 1124.35 2610.8 1119.77 2614.14 1114.72L2611.34 1109.78C2608.47 1114.98 2603.39 1119.95 2597.22 1123.4C2593.26 1125.58 2588.94 1126.82 2584.87 1127.51ZM2586 1110L2583.38 1114C2585.82 1115.3 2589.59 1117.74 2591.63 1119.19L2594.31 1115.12C2592.42 1113.78 2588.43 1111.31 2586 1110Z" fill="black"/>
<path d="M2624.07 1109.97V1114.32C2624.97 1114.29 2627.23 1114.21 2628.57 1114.21C2631.51 1114.21 2639.17 1114.21 2640.59 1114.21C2640.59 1115.41 2640.59 1126.78 2640.59 1130.48C2640.59 1131.21 2640.59 1132.59 2640.55 1133.17H2645.09C2645.09 1132.55 2645.06 1131.28 2645.06 1130.7C2645.06 1127.83 2645.06 1113.96 2645.06 1112.51C2645.06 1111.74 2645.06 1110.55 2645.09 1110.04C2644.51 1110.07 2643.17 1110.11 2642.33 1110.11C2639.32 1110.11 2631.55 1110.11 2628.57 1110.11C2627.23 1110.11 2625.01 1110.04 2624.07 1109.97ZM2625.01 1118.46V1122.78C2625.88 1122.71 2627.62 1122.71 2629 1122.71C2630.78 1122.71 2641.68 1122.71 2642.69 1122.71V1118.57C2641.71 1118.57 2630.78 1118.57 2629 1118.57C2627.62 1118.57 2625.95 1118.54 2625.01 1118.46ZM2623.7 1127.36V1131.83C2624.28 1131.83 2625.77 1131.75 2626.83 1131.75C2629.08 1131.75 2640.73 1131.75 2642.73 1131.75V1127.51C2641.17 1127.51 2629.08 1127.51 2626.83 1127.51C2625.52 1127.51 2624.28 1127.43 2623.7 1127.36Z" fill="black"/>
<path d="M2661.08 1102.85L2657.63 1106.52C2660.28 1108.33 2664.86 1112.29 2666.75 1114.32L2670.45 1110.55C2668.31 1108.33 2663.59 1104.55 2661.08 1102.85ZM2656.51 1127.03L2659.59 1131.83C2664.68 1130.95 2669.36 1128.96 2673.07 1126.74C2678.91 1123.22 2683.74 1118.21 2686.47 1113.27L2683.67 1108.19C2681.34 1113.09 2676.62 1118.61 2670.41 1122.31C2666.89 1124.38 2662.21 1126.23 2656.51 1127.03Z" fill="black"/>
</svg>
